<svg xmlns="http://www.w3.org/2000/svg" xmlns:xlink="http://www.w3.org/1999/xlink" width="500" zoomAndPan="magnify" viewBox="0 0 375 149.999998" height="200" preserveAspectRatio="xMidYMid meet" version="1.0"><defs><g/><clipPath id="2243fda71e"><path d="M 191.289062 25.351562 L 263.289062 25.351562 L 263.289062 63 L 191.289062 63 Z M 191.289062 25.351562 " clip-rule="nonzero"/></clipPath><clipPath id="ee4736df1f"><path d="M 243 56 L 257 56 L 257 69.601562 L 243 69.601562 Z M 243 56 " clip-rule="nonzero"/></clipPath><clipPath id="7407bb4499"><path d="M 198 56 L 212 56 L 212 69.601562 L 198 69.601562 Z M 198 56 " clip-rule="nonzero"/></clipPath><clipPath id="6573719c7e"><path d="M 164.976562 38.410156 L 233.613281 38.410156 L 233.613281 73.066406 L 164.976562 73.066406 Z M 164.976562 38.410156 " clip-rule="nonzero"/></clipPath><clipPath id="7063f6eb5f"><path d="M 171.726562 38.410156 L 226.851562 38.410156 C 230.578125 38.410156 233.601562 41.433594 233.601562 45.160156 L 233.601562 66.316406 C 233.601562 70.042969 230.578125 73.066406 226.851562 73.066406 L 171.726562 73.066406 C 167.996094 73.066406 164.976562 70.042969 164.976562 66.316406 L 164.976562 45.160156 C 164.976562 41.433594 167.996094 38.410156 171.726562 38.410156 Z M 171.726562 38.410156 " clip-rule="nonzero"/></clipPath><clipPath id="958ba3af7f"><path d="M 176 40.925781 L 233.761719 40.925781 L 233.761719 53 L 176 53 Z M 176 40.925781 " clip-rule="nonzero"/></clipPath><clipPath id="2369f624c4"><path d="M 167.011719 40.925781 L 180 40.925781 L 180 71.675781 L 167.011719 71.675781 Z M 167.011719 40.925781 " clip-rule="nonzero"/></clipPath><clipPath id="392beeccbe"><path d="M 183 40.925781 L 233 40.925781 L 233 71.675781 L 183 71.675781 Z M 183 40.925781 " clip-rule="nonzero"/></clipPath></defs><rect x="-37.5" width="450" fill="#ffffff" y="-15" height="179.999997" fill-opacity="1"/><rect x="-37.5" width="450" fill="#ffffff" y="-15" height="179.999997" fill-opacity="1"/><g fill="#f05523" fill-opacity="1"><g transform="translate(26.180268, 72.587529)"><g><path d="M 36.3125 -12.34375 L 42.5625 -6.140625 C 40.53125 -4.109375 38.128906 -2.492188 35.359375 -1.296875 C 32.597656 -0.0976562 29.648438 0.5 26.515625 0.5 C 23.378906 0.5 20.441406 -0.0859375 17.703125 -1.265625 C 14.972656 -2.453125 12.578125 -4.078125 10.515625 -6.140625 C 8.453125 -8.210938 6.828125 -10.613281 5.640625 -13.34375 C 4.460938 -16.070312 3.875 -19.003906 3.875 -22.140625 C 3.875 -25.273438 4.460938 -28.207031 5.640625 -30.9375 C 6.828125 -33.664062 8.453125 -36.0625 10.515625 -38.125 C 12.578125 -40.195312 14.972656 -41.820312 17.703125 -43 C 20.441406 -44.175781 23.378906 -44.765625 26.515625 -44.765625 C 29.648438 -44.765625 32.597656 -44.175781 35.359375 -43 C 38.128906 -41.820312 40.53125 -40.195312 42.5625 -38.125 L 36.3125 -31.9375 C 35.164062 -33.300781 33.75 -34.367188 32.0625 -35.140625 C 30.382812 -35.921875 28.535156 -36.3125 26.515625 -36.3125 C 23.929688 -36.3125 21.632812 -35.671875 19.625 -34.390625 C 17.613281 -33.117188 16.035156 -31.410156 14.890625 -29.265625 C 13.742188 -27.128906 13.171875 -24.753906 13.171875 -22.140625 C 13.171875 -19.554688 13.742188 -17.179688 14.890625 -15.015625 C 16.035156 -12.859375 17.613281 -11.144531 19.625 -9.875 C 21.632812 -8.601562 23.929688 -7.96875 26.515625 -7.96875 C 28.535156 -7.96875 30.382812 -8.351562 32.0625 -9.125 C 33.75 -9.90625 35.164062 -10.976562 36.3125 -12.34375 Z M 36.3125 -12.34375 "/></g></g></g><g fill="#f05523" fill-opacity="1"><g transform="translate(72.607744, 72.587529)"><g><path d="M 29.328125 -44.28125 L 37.578125 -44.28125 L 37.578125 -15.328125 C 37.578125 -13.078125 37.148438 -10.960938 36.296875 -8.984375 C 35.453125 -7.015625 34.28125 -5.28125 32.78125 -3.78125 C 31.289062 -2.289062 29.566406 -1.117188 27.609375 -0.265625 C 25.660156 0.578125 23.5625 1 21.3125 1 L 20.203125 1 C 17.953125 1 15.835938 0.578125 13.859375 -0.265625 C 11.890625 -1.117188 10.15625 -2.289062 8.65625 -3.78125 C 7.164062 -5.28125 5.992188 -7.015625 5.140625 -8.984375 C 4.296875 -10.960938 3.875 -13.078125 3.875 -15.328125 L 3.875 -44.28125 L 12.171875 -44.28125 L 12.171875 -15.328125 C 12.171875 -13.847656 12.53125 -12.488281 13.25 -11.25 C 13.96875 -10.019531 14.9375 -9.046875 16.15625 -8.328125 C 17.375 -7.609375 18.722656 -7.25 20.203125 -7.25 L 21.3125 -7.25 C 22.78125 -7.25 24.125 -7.609375 25.34375 -8.328125 C 26.5625 -9.046875 27.53125 -10.019531 28.25 -11.25 C 28.96875 -12.488281 29.328125 -13.847656 29.328125 -15.328125 Z M 29.328125 -44.28125 "/></g></g></g><g fill="#f05523" fill-opacity="1"><g transform="translate(114.054916, 72.587529)"><g><path d="M 30.15625 -44.28125 L 38.46875 -44.28125 L 38.46875 0 L 28.109375 0 L 12.171875 -27.734375 L 12.171875 0 L 3.875 0 L 3.875 -44.28125 L 12.953125 -44.28125 L 30.15625 -14.390625 Z M 30.15625 -44.28125 "/></g></g></g><g fill="#f05523" fill-opacity="1"><g transform="translate(156.391947, 72.587529)"><g/></g></g><g clip-path="url(#2243fda71e)"><path fill="#f05523" d="M 191.667969 35.183594 C 191.539062 33.675781 191.289062 25.351562 198.234375 25.351562 C 205.933594 25.351562 236.851562 25.351562 236.851562 25.351562 C 246.054688 28.238281 256.015625 40.875 263.042969 47.902344 L 263.042969 59.03125 C 263.042969 59.03125 260.113281 62.921875 258.398438 62.878906 C 256.640625 62.839844 244.007812 62.878906 242.917969 62.921875 C 233.335938 62.921875 221.457031 62.921875 212.125 62.878906 C 212.125 62.878906 197.480469 62.921875 197.023438 62.921875 C 195.390625 62.878906 191.792969 62.292969 191.875 57.984375 C 191.917969 52.421875 191.667969 35.183594 191.667969 35.183594 Z M 191.667969 35.183594 " fill-opacity="1" fill-rule="evenodd"/></g><path fill="#ffffff" d="M 236.851562 37.734375 L 236.894531 45.851562 C 236.894531 45.894531 237.519531 48.027344 239.277344 48.152344 C 239.277344 48.152344 250.53125 48.195312 250.617188 48.152344 C 250.699219 48.113281 250.824219 48.113281 250.910156 48.070312 C 254.132812 46.898438 252.039062 43.761719 252.039062 43.761719 L 245.890625 37.609375 C 244.339844 35.265625 237.1875 34.011719 236.851562 37.734375 Z M 236.851562 37.734375 " fill-opacity="1" fill-rule="evenodd"/><path fill="#ffffff" d="M 201.246094 35.265625 L 227.144531 35.265625 C 227.523438 35.265625 227.886719 35.339844 228.234375 35.484375 C 228.582031 35.628906 228.890625 35.832031 229.15625 36.101562 C 229.425781 36.367188 229.628906 36.675781 229.773438 37.023438 C 229.917969 37.371094 229.992188 37.734375 229.992188 38.113281 L 229.992188 45.433594 C 229.992188 45.8125 229.917969 46.175781 229.773438 46.523438 C 229.628906 46.871094 229.425781 47.179688 229.15625 47.445312 C 228.890625 47.710938 228.582031 47.917969 228.234375 48.0625 C 227.886719 48.207031 227.523438 48.277344 227.144531 48.277344 L 201.246094 48.277344 C 200.871094 48.277344 200.507812 48.207031 200.160156 48.0625 C 199.808594 47.917969 199.503906 47.710938 199.234375 47.445312 C 198.96875 47.179688 198.761719 46.871094 198.617188 46.523438 C 198.472656 46.175781 198.402344 45.8125 198.402344 45.433594 L 198.402344 38.113281 C 198.402344 37.734375 198.472656 37.371094 198.617188 37.023438 C 198.761719 36.675781 198.96875 36.367188 199.234375 36.101562 C 199.503906 35.832031 199.808594 35.628906 200.160156 35.484375 C 200.507812 35.339844 200.871094 35.265625 201.246094 35.265625 Z M 201.246094 35.265625 " fill-opacity="1" fill-rule="evenodd"/><path fill="#ec6408" d="M 212.878906 35.265625 L 215.515625 35.265625 L 215.515625 48.277344 L 212.878906 48.277344 Z M 212.878906 35.265625 " fill-opacity="1" fill-rule="evenodd"/><path fill="#ec6408" d="M 209.613281 41.167969 C 209.613281 40.414062 210.199219 39.828125 210.910156 39.828125 C 211.625 39.828125 212.210938 40.414062 212.210938 41.167969 L 212.210938 42.378906 C 212.210938 43.089844 211.625 43.675781 210.910156 43.675781 C 210.199219 43.675781 209.613281 43.089844 209.613281 42.378906 Z M 209.613281 41.167969 " fill-opacity="1" fill-rule="evenodd"/><path fill="#ec6408" d="M 216.351562 41.167969 C 216.351562 40.414062 216.9375 39.828125 217.648438 39.828125 C 218.359375 39.828125 218.945312 40.414062 218.945312 41.167969 L 218.945312 42.378906 C 218.945312 43.089844 218.359375 43.675781 217.648438 43.675781 C 216.9375 43.675781 216.351562 43.089844 216.351562 42.378906 Z M 216.351562 41.167969 " fill-opacity="1" fill-rule="evenodd"/><g clip-path="url(#ee4736df1f)"><path fill="#f05523" d="M 249.988281 56.0625 C 253.753906 56.0625 256.808594 59.113281 256.808594 62.878906 C 256.808594 66.644531 253.753906 69.742188 249.988281 69.742188 C 246.222656 69.742188 243.167969 66.6875 243.128906 62.921875 L 243.128906 62.878906 C 243.128906 59.113281 246.183594 56.0625 249.988281 56.0625 Z M 249.988281 56.0625 " fill-opacity="1" fill-rule="evenodd"/></g><g clip-path="url(#7407bb4499)"><path fill="#f05523" d="M 198.359375 62.878906 C 198.359375 59.113281 201.414062 56.0625 205.179688 56.0625 C 208.945312 56.0625 212 59.113281 212 62.878906 C 212 66.644531 208.945312 69.742188 205.179688 69.742188 C 201.414062 69.742188 198.359375 66.644531 198.359375 62.878906 Z M 198.359375 62.878906 " fill-opacity="1" fill-rule="evenodd"/></g><path fill="#ec6408" d="M 206.601562 62.839844 C 206.601562 63.011719 206.570312 63.175781 206.503906 63.335938 C 206.4375 63.492188 206.34375 63.632812 206.222656 63.753906 C 206.101562 63.878906 205.960938 63.972656 205.800781 64.035156 C 205.644531 64.101562 205.476562 64.136719 205.304688 64.136719 C 205.132812 64.136719 204.96875 64.101562 204.808594 64.035156 C 204.652344 63.972656 204.511719 63.878906 204.386719 63.753906 C 204.265625 63.632812 204.171875 63.492188 204.109375 63.335938 C 204.042969 63.175781 204.007812 63.011719 204.007812 62.839844 C 204.007812 62.667969 204.042969 62.5 204.109375 62.34375 C 204.171875 62.183594 204.265625 62.042969 204.386719 61.921875 C 204.511719 61.800781 204.652344 61.707031 204.808594 61.640625 C 204.96875 61.574219 205.132812 61.542969 205.304688 61.542969 C 205.476562 61.542969 205.644531 61.574219 205.800781 61.640625 C 205.960938 61.707031 206.101562 61.800781 206.222656 61.921875 C 206.34375 62.042969 206.4375 62.183594 206.503906 62.34375 C 206.570312 62.5 206.601562 62.667969 206.601562 62.839844 Z M 206.601562 62.839844 " fill-opacity="1" fill-rule="nonzero"/><path fill="#ec6408" d="M 251.285156 62.878906 C 251.285156 63.050781 251.253906 63.21875 251.1875 63.375 C 251.121094 63.535156 251.027344 63.675781 250.90625 63.796875 C 250.785156 63.917969 250.644531 64.011719 250.484375 64.078125 C 250.328125 64.144531 250.160156 64.175781 249.988281 64.175781 C 249.816406 64.175781 249.652344 64.144531 249.492188 64.078125 C 249.332031 64.011719 249.195312 63.917969 249.070312 63.796875 C 248.949219 63.675781 248.855469 63.535156 248.789062 63.375 C 248.726562 63.21875 248.691406 63.050781 248.691406 62.878906 C 248.691406 62.707031 248.726562 62.542969 248.789062 62.382812 C 248.855469 62.226562 248.949219 62.085938 249.070312 61.964844 C 249.195312 61.84375 249.332031 61.75 249.492188 61.683594 C 249.652344 61.617188 249.816406 61.582031 249.988281 61.582031 C 250.160156 61.582031 250.328125 61.617188 250.484375 61.683594 C 250.644531 61.75 250.785156 61.84375 250.90625 61.964844 C 251.027344 62.085938 251.121094 62.226562 251.1875 62.382812 C 251.253906 62.542969 251.285156 62.707031 251.285156 62.878906 Z M 251.285156 62.878906 " fill-opacity="1" fill-rule="nonzero"/><g clip-path="url(#6573719c7e)"><g clip-path="url(#7063f6eb5f)"><path fill="#ffffff" d="M 164.976562 38.410156 L 233.613281 38.410156 L 233.613281 73.066406 L 164.976562 73.066406 Z M 164.976562 38.410156 " fill-opacity="1" fill-rule="nonzero"/></g></g><g clip-path="url(#958ba3af7f)"><path fill="#f05523" d="M 239.59375 21.507812 L 178.808594 21.507812 C 177.507812 21.507812 176.441406 22.574219 176.441406 23.875 L 176.441406 38.667969 L 180.488281 38.667969 L 180.488281 35.9375 L 237.921875 35.9375 L 237.921875 47.320312 C 237.921875 48.335938 236.988281 49.164062 235.84375 49.164062 L 234.203125 49.164062 L 234.203125 52.597656 L 239.597656 52.597656 C 240.898438 52.597656 241.964844 51.53125 241.964844 50.230469 L 241.964844 23.878906 C 241.960938 22.574219 240.898438 21.507812 239.59375 21.507812 Z M 237.917969 31.019531 L 180.484375 31.019531 L 180.484375 26.785156 C 180.484375 25.769531 181.417969 24.9375 182.558594 24.9375 L 235.84375 24.9375 C 236.984375 24.9375 237.917969 25.769531 237.917969 26.785156 Z M 237.917969 31.019531 " fill-opacity="1" fill-rule="nonzero"/></g><g clip-path="url(#2369f624c4)"><path fill="#f05523" d="M 179.199219 40.746094 L 169.363281 40.746094 C 168.0625 40.746094 166.996094 41.8125 166.996094 43.113281 L 166.996094 69.464844 C 166.996094 70.765625 168.0625 71.832031 169.363281 71.832031 L 179.195312 71.832031 L 179.195312 40.746094 Z M 179.199219 40.746094 " fill-opacity="1" fill-rule="nonzero"/></g><g clip-path="url(#392beeccbe)"><path fill="#f05523" d="M 230.148438 40.746094 L 183.132812 40.746094 L 183.132812 71.832031 L 230.148438 71.832031 C 231.449219 71.832031 232.515625 70.765625 232.515625 69.464844 L 232.515625 43.113281 C 232.515625 41.8125 231.449219 40.746094 230.148438 40.746094 Z M 215.070312 52.417969 L 213.941406 53.230469 L 212.511719 66.578125 C 212.476562 66.925781 212.269531 67.261719 211.957031 67.480469 C 211.300781 67.953125 210.445312 67.761719 210.226562 67.097656 L 207.238281 58.023438 L 200.03125 61.972656 L 200.058594 64.960938 C 200.0625 65.34375 199.878906 65.703125 199.566406 65.921875 L 198.558594 66.648438 C 198.324219 66.816406 197.988281 66.667969 197.960938 66.378906 L 197.511719 62.019531 L 193.488281 60.125 C 193.222656 60.003906 193.191406 59.640625 193.425781 59.472656 L 194.433594 58.746094 C 194.746094 58.527344 195.144531 58.46875 195.503906 58.597656 L 198.566406 59.671875 L 204.519531 54.226562 L 196.898438 48.46875 C 196.339844 48.050781 196.4375 47.175781 197.09375 46.703125 C 197.40625 46.484375 197.789062 46.394531 198.128906 46.472656 L 211.222656 49.429688 L 212.355469 48.621094 C 213.398438 47.871094 216.203125 47.160156 216.949219 48.203125 C 217.691406 49.253906 216.117188 51.671875 215.070312 52.417969 Z M 215.070312 52.417969 " fill-opacity="1" fill-rule="nonzero"/></g><g fill="#000000" fill-opacity="1"><g transform="translate(27.113591, 106.677526)"><g><path d="M 17.796875 -5.640625 L 6.734375 -5.640625 L 4.703125 0 L 1.203125 0 L 10.375 -25.234375 L 14.203125 -25.234375 L 23.34375 0 L 19.84375 0 Z M 16.859375 -8.34375 L 12.265625 -21.15625 L 7.6875 -8.34375 Z M 16.859375 -8.34375 "/></g></g></g><g fill="#000000" fill-opacity="1"><g transform="translate(51.644475, 106.677526)"><g><path d="M 6.109375 -25.375 L 6.109375 0 L 2.796875 0 L 2.796875 -25.375 Z M 6.109375 -25.375 "/></g></g></g><g fill="#000000" fill-opacity="1"><g transform="translate(60.597887, 106.677526)"><g><path d="M 16.171875 0 L 10.125 -10.375 L 6.109375 -10.375 L 6.109375 0 L 2.796875 0 L 2.796875 -25.375 L 11 -25.375 C 12.914062 -25.375 14.535156 -25.046875 15.859375 -24.390625 C 17.179688 -23.734375 18.171875 -22.847656 18.828125 -21.734375 C 19.484375 -20.617188 19.8125 -19.34375 19.8125 -17.90625 C 19.8125 -16.164062 19.304688 -14.625 18.296875 -13.28125 C 17.285156 -11.945312 15.773438 -11.0625 13.765625 -10.625 L 20.125 0 Z M 6.109375 -13.03125 L 11 -13.03125 C 12.789062 -13.03125 14.132812 -13.472656 15.03125 -14.359375 C 15.9375 -15.242188 16.390625 -16.425781 16.390625 -17.90625 C 16.390625 -19.414062 15.941406 -20.582031 15.046875 -21.40625 C 14.160156 -22.226562 12.8125 -22.640625 11 -22.640625 L 6.109375 -22.640625 Z M 6.109375 -13.03125 "/></g></g></g><g fill="#000000" fill-opacity="1"><g transform="translate(82.726634, 106.677526)"><g><path d="M 19.765625 -17.953125 C 19.765625 -15.835938 19.039062 -14.082031 17.59375 -12.6875 C 16.15625 -11.289062 13.957031 -10.59375 11 -10.59375 L 6.109375 -10.59375 L 6.109375 0 L 2.796875 0 L 2.796875 -25.375 L 11 -25.375 C 13.863281 -25.375 16.039062 -24.679688 17.53125 -23.296875 C 19.019531 -21.910156 19.765625 -20.128906 19.765625 -17.953125 Z M 11 -13.328125 C 12.84375 -13.328125 14.203125 -13.726562 15.078125 -14.53125 C 15.953125 -15.332031 16.390625 -16.472656 16.390625 -17.953125 C 16.390625 -21.078125 14.59375 -22.640625 11 -22.640625 L 6.109375 -22.640625 L 6.109375 -13.328125 Z M 11 -13.328125 "/></g></g></g><g fill="#000000" fill-opacity="1"><g transform="translate(103.799902, 106.677526)"><g><path d="M 14.3125 0.25 C 11.957031 0.25 9.804688 -0.300781 7.859375 -1.40625 C 5.921875 -2.507812 4.382812 -4.050781 3.25 -6.03125 C 2.125 -8.007812 1.5625 -10.234375 1.5625 -12.703125 C 1.5625 -15.179688 2.125 -17.410156 3.25 -19.390625 C 4.382812 -21.367188 5.921875 -22.910156 7.859375 -24.015625 C 9.804688 -25.117188 11.957031 -25.671875 14.3125 -25.671875 C 16.6875 -25.671875 18.84375 -25.117188 20.78125 -24.015625 C 22.726562 -22.910156 24.257812 -21.375 25.375 -19.40625 C 26.488281 -17.4375 27.046875 -15.203125 27.046875 -12.703125 C 27.046875 -10.203125 26.488281 -7.96875 25.375 -6 C 24.257812 -4.039062 22.726562 -2.507812 20.78125 -1.40625 C 18.84375 -0.300781 16.6875 0.25 14.3125 0.25 Z M 14.3125 -2.625 C 16.082031 -2.625 17.675781 -3.035156 19.09375 -3.859375 C 20.507812 -4.679688 21.625 -5.859375 22.4375 -7.390625 C 23.257812 -8.921875 23.671875 -10.691406 23.671875 -12.703125 C 23.671875 -14.742188 23.257812 -16.519531 22.4375 -18.03125 C 21.625 -19.550781 20.515625 -20.722656 19.109375 -21.546875 C 17.703125 -22.378906 16.101562 -22.796875 14.3125 -22.796875 C 12.507812 -22.796875 10.90625 -22.378906 9.5 -21.546875 C 8.09375 -20.722656 6.984375 -19.550781 6.171875 -18.03125 C 5.359375 -16.519531 4.953125 -14.742188 4.953125 -12.703125 C 4.953125 -10.691406 5.359375 -8.921875 6.171875 -7.390625 C 6.984375 -5.859375 8.097656 -4.679688 9.515625 -3.859375 C 10.941406 -3.035156 12.539062 -2.625 14.3125 -2.625 Z M 14.3125 -2.625 "/></g></g></g><g fill="#000000" fill-opacity="1"><g transform="translate(132.407128, 106.677526)"><g><path d="M 16.171875 0 L 10.125 -10.375 L 6.109375 -10.375 L 6.109375 0 L 2.796875 0 L 2.796875 -25.375 L 11 -25.375 C 12.914062 -25.375 14.535156 -25.046875 15.859375 -24.390625 C 17.179688 -23.734375 18.171875 -22.847656 18.828125 -21.734375 C 19.484375 -20.617188 19.8125 -19.34375 19.8125 -17.90625 C 19.8125 -16.164062 19.304688 -14.625 18.296875 -13.28125 C 17.285156 -11.945312 15.773438 -11.0625 13.765625 -10.625 L 20.125 0 Z M 6.109375 -13.03125 L 11 -13.03125 C 12.789062 -13.03125 14.132812 -13.472656 15.03125 -14.359375 C 15.9375 -15.242188 16.390625 -16.425781 16.390625 -17.90625 C 16.390625 -19.414062 15.941406 -20.582031 15.046875 -21.40625 C 14.160156 -22.226562 12.8125 -22.640625 11 -22.640625 L 6.109375 -22.640625 Z M 6.109375 -13.03125 "/></g></g></g><g fill="#000000" fill-opacity="1"><g transform="translate(154.535875, 106.677526)"><g><path d="M 18.421875 -25.375 L 18.421875 -22.6875 L 11.5 -22.6875 L 11.5 0 L 8.1875 0 L 8.1875 -22.6875 L 1.234375 -22.6875 L 1.234375 -25.375 Z M 18.421875 -25.375 "/></g></g></g><g fill="#000000" fill-opacity="1"><g transform="translate(174.226086, 106.677526)"><g/></g></g><g fill="#000000" fill-opacity="1"><g transform="translate(183.943806, 106.677526)"><g><path d="M 10.84375 0.25 C 9.175781 0.25 7.679688 -0.046875 6.359375 -0.640625 C 5.035156 -1.234375 3.992188 -2.054688 3.234375 -3.109375 C 2.484375 -4.171875 2.097656 -5.390625 2.078125 -6.765625 L 5.609375 -6.765625 C 5.722656 -5.578125 6.210938 -4.578125 7.078125 -3.765625 C 7.941406 -2.953125 9.195312 -2.546875 10.84375 -2.546875 C 12.425781 -2.546875 13.671875 -2.941406 14.578125 -3.734375 C 15.492188 -4.523438 15.953125 -5.535156 15.953125 -6.765625 C 15.953125 -7.742188 15.679688 -8.535156 15.140625 -9.140625 C 14.609375 -9.742188 13.941406 -10.203125 13.140625 -10.515625 C 12.335938 -10.835938 11.257812 -11.179688 9.90625 -11.546875 C 8.226562 -11.984375 6.882812 -12.414062 5.875 -12.84375 C 4.875 -13.28125 4.015625 -13.96875 3.296875 -14.90625 C 2.578125 -15.84375 2.21875 -17.097656 2.21875 -18.671875 C 2.21875 -20.054688 2.566406 -21.28125 3.265625 -22.34375 C 3.972656 -23.414062 4.960938 -24.242188 6.234375 -24.828125 C 7.515625 -25.410156 8.976562 -25.703125 10.625 -25.703125 C 13.007812 -25.703125 14.957031 -25.109375 16.46875 -23.921875 C 17.988281 -22.734375 18.847656 -21.15625 19.046875 -19.1875 L 15.40625 -19.1875 C 15.28125 -20.15625 14.769531 -21.007812 13.875 -21.75 C 12.976562 -22.488281 11.785156 -22.859375 10.296875 -22.859375 C 8.921875 -22.859375 7.796875 -22.5 6.921875 -21.78125 C 6.046875 -21.070312 5.609375 -20.070312 5.609375 -18.78125 C 5.609375 -17.863281 5.867188 -17.113281 6.390625 -16.53125 C 6.910156 -15.945312 7.550781 -15.503906 8.3125 -15.203125 C 9.082031 -14.898438 10.160156 -14.550781 11.546875 -14.15625 C 13.210938 -13.695312 14.554688 -13.242188 15.578125 -12.796875 C 16.597656 -12.347656 17.472656 -11.65625 18.203125 -10.71875 C 18.929688 -9.78125 19.296875 -8.515625 19.296875 -6.921875 C 19.296875 -5.679688 18.96875 -4.515625 18.3125 -3.421875 C 17.65625 -2.328125 16.679688 -1.441406 15.390625 -0.765625 C 14.109375 -0.0859375 12.59375 0.25 10.84375 0.25 Z M 10.84375 0.25 "/></g></g></g><g fill="#000000" fill-opacity="1"><g transform="translate(205.308233, 106.677526)"><g><path d="M 22.359375 -25.375 L 22.359375 0 L 19.046875 0 L 19.046875 -11.5 L 6.109375 -11.5 L 6.109375 0 L 2.796875 0 L 2.796875 -25.375 L 6.109375 -25.375 L 6.109375 -14.234375 L 19.046875 -14.234375 L 19.046875 -25.375 Z M 22.359375 -25.375 "/></g></g></g><g fill="#000000" fill-opacity="1"><g transform="translate(230.494253, 106.677526)"><g><path d="M 6.046875 -25.375 L 6.046875 -9.3125 C 6.046875 -7.0625 6.597656 -5.390625 7.703125 -4.296875 C 8.804688 -3.203125 10.34375 -2.65625 12.3125 -2.65625 C 14.25 -2.65625 15.769531 -3.203125 16.875 -4.296875 C 17.976562 -5.390625 18.53125 -7.0625 18.53125 -9.3125 L 18.53125 -25.375 L 21.84375 -25.375 L 21.84375 -9.359375 C 21.84375 -7.242188 21.414062 -5.460938 20.5625 -4.015625 C 19.71875 -2.578125 18.570312 -1.503906 17.125 -0.796875 C 15.6875 -0.0976562 14.066406 0.25 12.265625 0.25 C 10.472656 0.25 8.851562 -0.0976562 7.40625 -0.796875 C 5.96875 -1.503906 4.828125 -2.578125 3.984375 -4.015625 C 3.148438 -5.460938 2.734375 -7.242188 2.734375 -9.359375 L 2.734375 -25.375 Z M 6.046875 -25.375 "/></g></g></g><g fill="#000000" fill-opacity="1"><g transform="translate(255.061534, 106.677526)"><g><path d="M 18.421875 -25.375 L 18.421875 -22.6875 L 11.5 -22.6875 L 11.5 0 L 8.1875 0 L 8.1875 -22.6875 L 1.234375 -22.6875 L 1.234375 -25.375 Z M 18.421875 -25.375 "/></g></g></g><g fill="#000000" fill-opacity="1"><g transform="translate(274.751746, 106.677526)"><g><path d="M 18.421875 -25.375 L 18.421875 -22.6875 L 11.5 -22.6875 L 11.5 0 L 8.1875 0 L 8.1875 -22.6875 L 1.234375 -22.6875 L 1.234375 -25.375 Z M 18.421875 -25.375 "/></g></g></g><g fill="#000000" fill-opacity="1"><g transform="translate(294.441957, 106.677526)"><g><path d="M 6.109375 -2.6875 L 15 -2.6875 L 15 0 L 2.796875 0 L 2.796875 -25.375 L 6.109375 -25.375 Z M 6.109375 -2.6875 "/></g></g></g><g fill="#000000" fill-opacity="1"><g transform="translate(310.165008, 106.677526)"><g><path d="M 6.109375 -22.6875 L 6.109375 -14.203125 L 15.359375 -14.203125 L 15.359375 -11.46875 L 6.109375 -11.46875 L 6.109375 -2.734375 L 16.453125 -2.734375 L 16.453125 0 L 2.796875 0 L 2.796875 -25.40625 L 16.453125 -25.40625 L 16.453125 -22.6875 Z M 6.109375 -22.6875 "/></g></g></g><g fill="#080807" fill-opacity="1"><g transform="translate(203.056926, 127.628183)"><g><path d="M 6.25 -10.796875 C 7.726562 -10.796875 8.84375 -10.328125 9.59375 -9.390625 C 10.34375 -8.460938 10.71875 -7.101562 10.71875 -5.3125 C 10.71875 -3.550781 10.320312 -2.191406 9.53125 -1.234375 C 8.75 -0.285156 7.644531 0.1875 6.21875 0.1875 C 5.457031 0.1875 4.773438 0.0351562 4.171875 -0.265625 C 3.566406 -0.578125 3.085938 -1.019531 2.734375 -1.59375 L 2.65625 -1.59375 L 2.375 0 L 1.78125 0 L 1.78125 -15.171875 L 2.734375 -15.171875 L 2.734375 -11.359375 C 2.734375 -10.785156 2.722656 -10.257812 2.703125 -9.78125 L 2.671875 -8.953125 L 2.734375 -8.953125 C 3.140625 -9.585938 3.625 -10.050781 4.1875 -10.34375 C 4.757812 -10.644531 5.445312 -10.796875 6.25 -10.796875 Z M 6.234375 -9.921875 C 4.984375 -9.921875 4.085938 -9.5625 3.546875 -8.84375 C 3.003906 -8.132812 2.734375 -6.957031 2.734375 -5.3125 L 2.734375 -5.140625 C 2.734375 -3.546875 3.015625 -2.398438 3.578125 -1.703125 C 4.140625 -1.003906 5.019531 -0.65625 6.21875 -0.65625 C 7.375 -0.65625 8.242188 -1.0625 8.828125 -1.875 C 9.410156 -2.6875 9.703125 -3.835938 9.703125 -5.328125 C 9.703125 -8.390625 8.546875 -9.921875 6.234375 -9.921875 Z M 6.234375 -9.921875 "/></g></g></g><g fill="#080807" fill-opacity="1"><g transform="translate(213.943899, 127.628183)"><g><path d="M 0 -10.59375 L 1 -10.59375 L 3.234375 -4.65625 C 3.921875 -2.820312 4.351562 -1.585938 4.53125 -0.953125 L 4.59375 -0.953125 C 4.863281 -1.796875 5.304688 -3.046875 5.921875 -4.703125 L 8.171875 -10.59375 L 9.171875 -10.59375 L 4.421875 1.71875 C 4.035156 2.71875 3.710938 3.390625 3.453125 3.734375 C 3.191406 4.085938 2.882812 4.351562 2.53125 4.53125 C 2.1875 4.707031 1.769531 4.796875 1.28125 4.796875 C 0.90625 4.796875 0.488281 4.726562 0.03125 4.59375 L 0.03125 3.75 C 0.414062 3.851562 0.820312 3.90625 1.25 3.90625 C 1.582031 3.90625 1.875 3.828125 2.125 3.671875 C 2.382812 3.515625 2.613281 3.269531 2.8125 2.9375 C 3.019531 2.613281 3.257812 2.097656 3.53125 1.390625 C 3.800781 0.679688 3.976562 0.21875 4.0625 0 Z M 0 -10.59375 "/></g></g></g><g fill="#080807" fill-opacity="1"><g transform="translate(222.110521, 127.628183)"><g/></g></g><g fill="#080807" fill-opacity="1"><g transform="translate(226.298994, 127.628183)"><g><path d="M 7.625 -7.1875 L 12.875 -7.1875 L 12.875 -0.6875 C 11.5 -0.101562 9.953125 0.1875 8.234375 0.1875 C 5.984375 0.1875 4.253906 -0.445312 3.046875 -1.71875 C 1.847656 -2.988281 1.25 -4.785156 1.25 -7.109375 C 1.25 -8.554688 1.546875 -9.835938 2.140625 -10.953125 C 2.742188 -12.078125 3.597656 -12.945312 4.703125 -13.5625 C 5.804688 -14.175781 7.078125 -14.484375 8.515625 -14.484375 C 10.078125 -14.484375 11.472656 -14.195312 12.703125 -13.625 L 12.3125 -12.71875 C 11.070312 -13.289062 9.789062 -13.578125 8.46875 -13.578125 C 6.582031 -13.578125 5.085938 -12.992188 3.984375 -11.828125 C 2.890625 -10.671875 2.34375 -9.109375 2.34375 -7.140625 C 2.34375 -4.992188 2.863281 -3.378906 3.90625 -2.296875 C 4.957031 -1.222656 6.492188 -0.6875 8.515625 -0.6875 C 9.828125 -0.6875 10.941406 -0.867188 11.859375 -1.234375 L 11.859375 -6.25 L 7.625 -6.25 Z M 7.625 -7.1875 "/></g></g></g><g fill="#080807" fill-opacity="1"><g transform="translate(239.740562, 127.628183)"><g><path d="M 10.546875 -5.3125 C 10.546875 -3.582031 10.125 -2.234375 9.28125 -1.265625 C 8.445312 -0.296875 7.289062 0.1875 5.8125 0.1875 C 4.882812 0.1875 4.066406 -0.0351562 3.359375 -0.484375 C 2.648438 -0.929688 2.101562 -1.570312 1.71875 -2.40625 C 1.34375 -3.25 1.15625 -4.21875 1.15625 -5.3125 C 1.15625 -7.039062 1.570312 -8.382812 2.40625 -9.34375 C 3.25 -10.3125 4.40625 -10.796875 5.875 -10.796875 C 7.320312 -10.796875 8.460938 -10.304688 9.296875 -9.328125 C 10.128906 -8.359375 10.546875 -7.019531 10.546875 -5.3125 Z M 2.171875 -5.3125 C 2.171875 -3.851562 2.488281 -2.71875 3.125 -1.90625 C 3.769531 -1.09375 4.675781 -0.6875 5.84375 -0.6875 C 7.019531 -0.6875 7.925781 -1.09375 8.5625 -1.90625 C 9.207031 -2.71875 9.53125 -3.851562 9.53125 -5.3125 C 9.53125 -6.769531 9.203125 -7.898438 8.546875 -8.703125 C 7.898438 -9.515625 6.992188 -9.921875 5.828125 -9.921875 C 4.660156 -9.921875 3.757812 -9.519531 3.125 -8.71875 C 2.488281 -7.914062 2.171875 -6.78125 2.171875 -5.3125 Z M 2.171875 -5.3125 "/></g></g></g><g fill="#080807" fill-opacity="1"><g transform="translate(250.442278, 127.628183)"><g><path d="M 5.734375 0 L 4.734375 0 L 4.734375 -13.3125 L 0.09375 -13.3125 L 0.09375 -14.25 L 10.359375 -14.25 L 10.359375 -13.3125 L 5.734375 -13.3125 Z M 5.734375 0 "/></g></g></g><g fill="#080807" fill-opacity="1"><g transform="translate(259.9057, 127.628183)"><g><path d="M 5.953125 -10.796875 C 6.398438 -10.796875 6.878906 -10.753906 7.390625 -10.671875 L 7.203125 -9.734375 C 6.765625 -9.847656 6.304688 -9.90625 5.828125 -9.90625 C 4.921875 -9.90625 4.175781 -9.519531 3.59375 -8.75 C 3.019531 -7.988281 2.734375 -7.019531 2.734375 -5.84375 L 2.734375 0 L 1.78125 0 L 1.78125 -10.59375 L 2.59375 -10.59375 L 2.6875 -8.6875 L 2.765625 -8.6875 C 3.191406 -9.46875 3.648438 -10.015625 4.140625 -10.328125 C 4.640625 -10.640625 5.242188 -10.796875 5.953125 -10.796875 Z M 5.953125 -10.796875 "/></g></g></g><g fill="#080807" fill-opacity="1"><g transform="translate(266.678021, 127.628183)"><g><path d="M 8.203125 0 L 7.96875 -1.671875 L 7.890625 -1.671875 C 7.359375 -0.992188 6.8125 -0.515625 6.25 -0.234375 C 5.6875 0.046875 5.019531 0.1875 4.25 0.1875 C 3.207031 0.1875 2.394531 -0.078125 1.8125 -0.609375 C 1.238281 -1.140625 0.953125 -1.875 0.953125 -2.8125 C 0.953125 -3.851562 1.382812 -4.65625 2.25 -5.21875 C 3.113281 -5.789062 4.359375 -6.097656 5.984375 -6.140625 L 8 -6.1875 L 8 -6.890625 C 8 -7.898438 7.796875 -8.660156 7.390625 -9.171875 C 6.984375 -9.691406 6.320312 -9.953125 5.40625 -9.953125 C 4.425781 -9.953125 3.410156 -9.675781 2.359375 -9.125 L 2 -9.96875 C 3.164062 -10.507812 4.316406 -10.78125 5.453125 -10.78125 C 6.617188 -10.78125 7.488281 -10.476562 8.0625 -9.875 C 8.632812 -9.269531 8.921875 -8.328125 8.921875 -7.046875 L 8.921875 0 Z M 4.3125 -0.6875 C 5.4375 -0.6875 6.328125 -1.007812 6.984375 -1.65625 C 7.640625 -2.300781 7.96875 -3.195312 7.96875 -4.34375 L 7.96875 -5.390625 L 6.109375 -5.3125 C 4.617188 -5.238281 3.554688 -5.003906 2.921875 -4.609375 C 2.296875 -4.222656 1.984375 -3.613281 1.984375 -2.78125 C 1.984375 -2.113281 2.1875 -1.597656 2.59375 -1.234375 C 3 -0.867188 3.570312 -0.6875 4.3125 -0.6875 Z M 4.3125 -0.6875 "/></g></g></g><g fill="#080807" fill-opacity="1"><g transform="translate(276.258448, 127.628183)"><g><path d="M 9.171875 0 L 9.171875 -6.875 C 9.171875 -7.9375 8.941406 -8.707031 8.484375 -9.1875 C 8.035156 -9.675781 7.34375 -9.921875 6.40625 -9.921875 C 5.132812 -9.921875 4.203125 -9.597656 3.609375 -8.953125 C 3.023438 -8.316406 2.734375 -7.28125 2.734375 -5.84375 L 2.734375 0 L 1.78125 0 L 1.78125 -10.59375 L 2.59375 -10.59375 L 2.78125 -9.140625 L 2.84375 -9.140625 C 3.53125 -10.242188 4.753906 -10.796875 6.515625 -10.796875 C 8.921875 -10.796875 10.125 -9.507812 10.125 -6.9375 L 10.125 0 Z M 9.171875 0 "/></g></g></g><g fill="#080807" fill-opacity="1"><g transform="translate(287.038169, 127.628183)"><g><path d="M 8.34375 -2.765625 C 8.34375 -1.804688 7.984375 -1.070312 7.265625 -0.5625 C 6.546875 -0.0625 5.519531 0.1875 4.1875 0.1875 C 2.769531 0.1875 1.644531 -0.0234375 0.8125 -0.453125 L 0.8125 -1.5 C 1.882812 -0.96875 3.007812 -0.703125 4.1875 -0.703125 C 5.238281 -0.703125 6.035156 -0.875 6.578125 -1.21875 C 7.117188 -1.570312 7.390625 -2.035156 7.390625 -2.609375 C 7.390625 -3.140625 7.171875 -3.585938 6.734375 -3.953125 C 6.304688 -4.316406 5.597656 -4.675781 4.609375 -5.03125 C 3.546875 -5.414062 2.800781 -5.742188 2.375 -6.015625 C 1.945312 -6.296875 1.625 -6.609375 1.40625 -6.953125 C 1.1875 -7.304688 1.078125 -7.734375 1.078125 -8.234375 C 1.078125 -9.023438 1.410156 -9.648438 2.078125 -10.109375 C 2.742188 -10.566406 3.675781 -10.796875 4.875 -10.796875 C 6.019531 -10.796875 7.101562 -10.582031 8.125 -10.15625 L 7.765625 -9.28125 C 6.734375 -9.707031 5.769531 -9.921875 4.875 -9.921875 C 4.007812 -9.921875 3.320312 -9.773438 2.8125 -9.484375 C 2.3125 -9.203125 2.0625 -8.8125 2.0625 -8.3125 C 2.0625 -7.757812 2.253906 -7.316406 2.640625 -6.984375 C 3.035156 -6.648438 3.804688 -6.28125 4.953125 -5.875 C 5.910156 -5.53125 6.601562 -5.21875 7.03125 -4.9375 C 7.46875 -4.664062 7.796875 -4.351562 8.015625 -4 C 8.234375 -3.644531 8.34375 -3.234375 8.34375 -2.765625 Z M 8.34375 -2.765625 "/></g></g></g><g fill="#080807" fill-opacity="1"><g transform="translate(295.341298, 127.628183)"><g><path d="M 5.71875 -9.765625 L 3.21875 -9.765625 L 3.21875 0 L 2.25 0 L 2.25 -9.765625 L 0.28125 -9.765625 L 0.28125 -10.328125 L 2.25 -10.6875 L 2.25 -11.5 C 2.25 -12.800781 2.488281 -13.753906 2.96875 -14.359375 C 3.445312 -14.972656 4.226562 -15.28125 5.3125 -15.28125 C 5.894531 -15.28125 6.476562 -15.191406 7.0625 -15.015625 L 6.84375 -14.171875 C 6.320312 -14.335938 5.804688 -14.421875 5.296875 -14.421875 C 4.535156 -14.421875 4 -14.195312 3.6875 -13.75 C 3.375 -13.300781 3.21875 -12.578125 3.21875 -11.578125 L 3.21875 -10.59375 L 5.71875 -10.59375 Z M 5.71875 -9.765625 "/></g></g></g><g fill="#080807" fill-opacity="1"><g transform="translate(300.329297, 127.628183)"><g><path d="M 6.0625 0.1875 C 4.519531 0.1875 3.316406 -0.285156 2.453125 -1.234375 C 1.585938 -2.179688 1.15625 -3.507812 1.15625 -5.21875 C 1.15625 -6.90625 1.570312 -8.253906 2.40625 -9.265625 C 3.238281 -10.285156 4.359375 -10.796875 5.765625 -10.796875 C 7.015625 -10.796875 8 -10.359375 8.71875 -9.484375 C 9.445312 -8.617188 9.8125 -7.441406 9.8125 -5.953125 L 9.8125 -5.171875 L 2.171875 -5.171875 C 2.179688 -3.710938 2.519531 -2.597656 3.1875 -1.828125 C 3.851562 -1.066406 4.8125 -0.6875 6.0625 -0.6875 C 6.664062 -0.6875 7.195312 -0.726562 7.65625 -0.8125 C 8.113281 -0.894531 8.691406 -1.078125 9.390625 -1.359375 L 9.390625 -0.484375 C 8.796875 -0.222656 8.242188 -0.046875 7.734375 0.046875 C 7.222656 0.140625 6.664062 0.1875 6.0625 0.1875 Z M 5.765625 -9.953125 C 4.742188 -9.953125 3.925781 -9.613281 3.3125 -8.9375 C 2.695312 -8.257812 2.335938 -7.289062 2.234375 -6.03125 L 8.78125 -6.03125 C 8.78125 -7.257812 8.515625 -8.21875 7.984375 -8.90625 C 7.453125 -9.601562 6.710938 -9.953125 5.765625 -9.953125 Z M 5.765625 -9.953125 "/></g></g></g><g fill="#080807" fill-opacity="1"><g transform="translate(310.289982, 127.628183)"><g><path d="M 5.953125 -10.796875 C 6.398438 -10.796875 6.878906 -10.753906 7.390625 -10.671875 L 7.203125 -9.734375 C 6.765625 -9.847656 6.304688 -9.90625 5.828125 -9.90625 C 4.921875 -9.90625 4.175781 -9.519531 3.59375 -8.75 C 3.019531 -7.988281 2.734375 -7.019531 2.734375 -5.84375 L 2.734375 0 L 1.78125 0 L 1.78125 -10.59375 L 2.59375 -10.59375 L 2.6875 -8.6875 L 2.765625 -8.6875 C 3.191406 -9.46875 3.648438 -10.015625 4.140625 -10.328125 C 4.640625 -10.640625 5.242188 -10.796875 5.953125 -10.796875 Z M 5.953125 -10.796875 "/></g></g></g><g fill="#080807" fill-opacity="1"><g transform="translate(317.062297, 127.628183)"><g><path d="M 8.34375 -2.765625 C 8.34375 -1.804688 7.984375 -1.070312 7.265625 -0.5625 C 6.546875 -0.0625 5.519531 0.1875 4.1875 0.1875 C 2.769531 0.1875 1.644531 -0.0234375 0.8125 -0.453125 L 0.8125 -1.5 C 1.882812 -0.96875 3.007812 -0.703125 4.1875 -0.703125 C 5.238281 -0.703125 6.035156 -0.875 6.578125 -1.21875 C 7.117188 -1.570312 7.390625 -2.035156 7.390625 -2.609375 C 7.390625 -3.140625 7.171875 -3.585938 6.734375 -3.953125 C 6.304688 -4.316406 5.597656 -4.675781 4.609375 -5.03125 C 3.546875 -5.414062 2.800781 -5.742188 2.375 -6.015625 C 1.945312 -6.296875 1.625 -6.609375 1.40625 -6.953125 C 1.1875 -7.304688 1.078125 -7.734375 1.078125 -8.234375 C 1.078125 -9.023438 1.410156 -9.648438 2.078125 -10.109375 C 2.742188 -10.566406 3.675781 -10.796875 4.875 -10.796875 C 6.019531 -10.796875 7.101562 -10.582031 8.125 -10.15625 L 7.765625 -9.28125 C 6.734375 -9.707031 5.769531 -9.921875 4.875 -9.921875 C 4.007812 -9.921875 3.320312 -9.773438 2.8125 -9.484375 C 2.3125 -9.203125 2.0625 -8.8125 2.0625 -8.3125 C 2.0625 -7.757812 2.253906 -7.316406 2.640625 -6.984375 C 3.035156 -6.648438 3.804688 -6.28125 4.953125 -5.875 C 5.910156 -5.53125 6.601562 -5.21875 7.03125 -4.9375 C 7.46875 -4.664062 7.796875 -4.351562 8.015625 -4 C 8.234375 -3.644531 8.34375 -3.234375 8.34375 -2.765625 Z M 8.34375 -2.765625 "/></g></g></g></svg>